<svg width="24" height="22" viewBox="0 0 24 22" fill="none" xmlns="http://www.w3.org/2000/svg">
<path d="M8.04703 17.7144C8.04703 17.8053 7.9424 17.8781 7.81047 17.8781C7.66035 17.8918 7.55572 17.819 7.55572 17.7144C7.55572 17.6234 7.66035 17.5506 7.79228 17.5506C7.92875 17.537 8.04703 17.6097 8.04703 17.7144ZM6.63225 17.5097C6.6004 17.6006 6.69139 17.7053 6.82786 17.7326C6.94614 17.7781 7.08261 17.7326 7.10991 17.6416C7.1372 17.5506 7.05077 17.446 6.91429 17.405C6.79602 17.3732 6.66409 17.4187 6.63225 17.5097ZM8.64297 17.4323C8.51104 17.4642 8.42006 17.5506 8.43371 17.6552C8.44736 17.7462 8.56563 17.8054 8.70211 17.7735C8.83403 17.7417 8.92501 17.6552 8.91137 17.5642C8.89772 17.4778 8.77489 17.4187 8.64297 17.4323ZM11.6363 0C5.32664 0 0.5 4.79025 0.5 11.0999C0.5 16.1449 3.6753 20.4621 8.2108 21.9815C8.79309 22.0861 8.9978 21.7267 8.9978 21.431C8.9978 21.149 8.98415 19.5932 8.98415 18.6378C8.98415 18.6378 5.79975 19.3202 5.13103 17.2822C5.13103 17.2822 4.61243 15.9584 3.86637 15.6172C3.86637 15.6172 2.82461 14.903 3.93915 14.9166C3.93915 14.9166 5.07189 15.0076 5.69512 16.0903C6.69139 17.8463 8.36092 17.3413 9.01145 17.0411C9.11608 16.3132 9.41177 15.8083 9.73931 15.508C7.19634 15.226 4.63062 14.8575 4.63062 10.4812C4.63062 9.23021 4.97636 8.60243 5.70422 7.80178C5.58594 7.50609 5.19927 6.28692 5.8225 4.71291C6.77327 4.41722 8.96141 5.94118 8.96141 5.94118C9.87124 5.68643 10.8493 5.55451 11.8183 5.55451C12.7872 5.55451 13.7653 5.68643 14.6751 5.94118C14.6751 5.94118 16.8633 4.41267 17.814 4.71291C18.4373 6.29147 18.0506 7.50609 17.9323 7.80178C18.6602 8.60698 19.106 9.23476 19.106 10.4812C19.106 14.8712 16.4266 15.2214 13.8836 15.508C14.3021 15.8674 14.6569 16.5498 14.6569 17.6188C14.6569 19.1519 14.6433 21.0489 14.6433 21.4219C14.6433 21.7176 14.8526 22.077 15.4303 21.9724C19.9794 20.4621 23.0638 16.1449 23.0638 11.0999C23.0638 4.79025 17.946 0 11.6363 0ZM4.92177 15.69C4.86263 15.7355 4.87628 15.8401 4.95361 15.9266C5.0264 15.9993 5.13103 16.0312 5.19017 15.972C5.24931 15.9266 5.23566 15.8219 5.15832 15.7355C5.08554 15.6627 4.98091 15.6309 4.92177 15.69ZM4.43046 15.3215C4.39862 15.3807 4.44411 15.4534 4.53509 15.4989C4.60788 15.5444 4.69886 15.5308 4.7307 15.4671C4.76255 15.408 4.71706 15.3352 4.62607 15.2897C4.53509 15.2624 4.4623 15.276 4.43046 15.3215ZM5.90438 16.941C5.8316 17.0002 5.85889 17.1366 5.96352 17.2231C6.06815 17.3277 6.20008 17.3413 6.25922 17.2686C6.31836 17.2094 6.29106 17.0729 6.20008 16.9865C6.1 16.8819 5.96352 16.8682 5.90438 16.941ZM5.38578 16.2723C5.31299 16.3178 5.31299 16.4361 5.38578 16.5407C5.45857 16.6453 5.58139 16.6908 5.64053 16.6453C5.71332 16.5862 5.71332 16.4679 5.64053 16.3633C5.57685 16.2586 5.45857 16.2132 5.38578 16.2723Z" fill="url(#paint0_linear)"/>
<defs>
<linearGradient id="paint0_linear" x1="0.502239" y1="10.997" x2="23.0614" y2="10.997" gradientUnits="userSpaceOnUse">
<stop stop-color="#FF4200"/>
<stop offset="1" stop-color="#E50695"/>
</linearGradient>
</defs>
</svg>
