<svg width="23" height="22" viewBox="0 0 23 22" fill="none" xmlns="http://www.w3.org/2000/svg">
<g clip-path="url(#clip0)">
<path d="M20.2386 6.51906C20.2525 6.71449 20.2525 6.90995 20.2525 7.10537C20.2525 13.066 15.7157 19.934 7.42386 19.934C4.86928 19.934 2.4962 19.1942 0.5 17.9099C0.862957 17.9518 1.21191 17.9658 1.58883 17.9658C3.69666 17.9658 5.63704 17.2539 7.18654 16.0394C5.2043 15.9975 3.54313 14.6993 2.97079 12.9125C3.25 12.9543 3.52917 12.9823 3.82234 12.9823C4.22715 12.9823 4.632 12.9264 5.00888 12.8287C2.9429 12.4099 1.39336 10.5952 1.39336 8.40359V8.34777C1.99359 8.6828 2.69162 8.89218 3.43141 8.92007C2.21695 8.11041 1.42129 6.72845 1.42129 5.16499C1.42129 4.32744 1.6446 3.55968 2.03549 2.88962C4.25504 5.62566 7.59135 7.41243 11.3324 7.60789C11.2626 7.27286 11.2207 6.92392 11.2207 6.57492C11.2207 4.09013 13.2309 2.06604 15.7296 2.06604C17.0278 2.06604 18.2004 2.61045 19.024 3.4899C20.043 3.29447 21.0202 2.91755 21.8857 2.40107C21.5506 3.44804 20.8387 4.32749 19.9035 4.88582C20.8109 4.78815 21.6903 4.53683 22.4999 4.18788C21.8858 5.08124 21.118 5.8769 20.2386 6.51906Z" fill="url(#paint0_linear)"/>
</g>
<defs>
<linearGradient id="paint0_linear" x1="0.502183" y1="10.9976" x2="22.4976" y2="10.9976" gradientUnits="userSpaceOnUse">
<stop stop-color="#FF4200"/>
<stop offset="1" stop-color="#E50695"/>
</linearGradient>
<clipPath id="clip0">
<rect width="22" height="22" fill="white" transform="translate(0.5)"/>
</clipPath>
</defs>
</svg>
