<svg width="26" height="21" viewBox="0 0 26 21" fill="none" xmlns="http://www.w3.org/2000/svg">
<path d="M24.3477 0.357422L24.4566 2.35445L24.4586 2.35434L24.3477 0.357422ZM13.9707 2.82812L14.9997 4.54311L15.0072 4.53862L15.0146 4.53406L13.9707 2.82812ZM14.6895 20.3926L15.5171 22.2133L15.556 22.1956L15.5942 22.1762L14.6895 20.3926ZM24.4824 18.2812L24.564 20.2796L24.5819 20.2789L24.5999 20.2778L24.4824 18.2812ZM25.8301 1.70508L23.8335 1.58763L23.8301 1.64631V1.70508H25.8301ZM11.8594 2.82812L10.8154 4.53406L10.8229 4.53862L10.8304 4.54311L11.8594 2.82812ZM1.48242 0.357422L1.37148 2.35434L1.37349 2.35445L1.48242 0.357422ZM1.34766 18.2812L1.23021 20.2778L1.24814 20.2789L1.26609 20.2796L1.34766 18.2812ZM11.1406 20.3926L10.2359 22.1762L10.274 22.1956L10.313 22.2133L11.1406 20.3926ZM24.2387 -1.63961C22.9511 -1.56938 21.0109 -1.4049 18.9802 -1.01071C16.9819 -0.622804 14.732 0.0174952 12.9268 1.12219L15.0146 4.53406C16.2192 3.79696 17.9224 3.26929 19.7424 2.91599C21.5301 2.56897 23.2735 2.41898 24.4566 2.35445L24.2387 -1.63961ZM12.9417 1.11314C12.2049 1.55521 11.6113 2.38577 11.6113 3.41211H15.6113C15.6113 3.98923 15.2873 4.37057 14.9997 4.54311L12.9417 1.11314ZM11.6113 3.41211V19.7637H15.6113V3.41211H11.6113ZM11.6113 19.7637C11.6113 22.0273 13.9535 22.924 15.5171 22.2133L13.8618 18.5718C14.2141 18.4117 14.6188 18.4358 14.9523 18.6251C15.307 18.8264 15.6113 19.2432 15.6113 19.7637H11.6113ZM15.5942 22.1762C18.2827 20.8125 22.3998 20.3679 24.564 20.2796L24.4009 16.2829C22.1627 16.3743 17.2954 16.8281 13.7847 18.6089L15.5942 22.1762ZM24.5999 20.2778C26.3962 20.1721 27.8301 18.6907 27.8301 16.8887H23.8301C23.8301 16.5242 24.096 16.3005 24.365 16.2847L24.5999 20.2778ZM27.8301 16.8887V1.70508H23.8301V16.8887H27.8301ZM27.8266 1.82252C27.9544 -0.349756 26.0116 -1.73811 24.2367 -1.6395L24.4586 2.35434C24.3158 2.36228 24.1809 2.31327 24.0727 2.21612C23.9593 2.11431 23.8154 1.89513 23.8335 1.58763L27.8266 1.82252ZM12.9033 1.12219C11.0981 0.0174952 8.8482 -0.622804 6.84987 -1.01071C4.81919 -1.4049 2.87898 -1.56938 1.59135 -1.63961L1.37349 2.35445C2.55657 2.41898 4.29995 2.56897 6.08763 2.91599C7.90766 3.26929 9.61091 3.79696 10.8154 4.53406L12.9033 1.12219ZM1.59336 -1.6395C-0.30035 -1.74471 -2 -0.267237 -2 1.70508H2C2 2.15005 1.64801 2.36971 1.37148 2.35434L1.59336 -1.6395ZM-2 1.70508V16.8887H2V1.70508H-2ZM-2 16.8887C-2 18.6907 -0.566151 20.1721 1.23021 20.2778L1.4651 16.2847C1.73412 16.3005 2 16.5242 2 16.8887H-2ZM1.26609 20.2796C3.43029 20.3679 7.54735 20.8125 10.2359 22.1762L12.0454 18.6089C8.53468 16.8281 3.66737 16.3743 1.42922 16.2829L1.26609 20.2796ZM10.313 22.2133C11.8765 22.924 14.2188 22.0273 14.2188 19.7637H10.2188C10.2188 19.2432 10.5231 18.8264 10.8778 18.6251C11.2113 18.4358 11.616 18.4117 11.9682 18.5718L10.313 22.2133ZM14.2188 19.7637V3.41211H10.2188V19.7637H14.2188ZM14.2188 3.41211C14.2188 2.38577 13.6252 1.55521 12.8884 1.11314L10.8304 4.54311C10.5428 4.37057 10.2188 3.98923 10.2188 3.41211H14.2188Z" fill="url(#paint0_linear)"/>
<defs>
<linearGradient id="paint0_linear" x1="0.00258001" y1="9.9965" x2="25.9973" y2="9.9965" gradientUnits="userSpaceOnUse">
<stop stop-color="#FF4200"/>
<stop offset="1" stop-color="#E50695"/>
</linearGradient>
</defs>
</svg>
