<?xml version="1.0" encoding="utf-8"?>
<!-- Generator: Adobe Illustrator 24.2.1, SVG Export Plug-In . SVG Version: 6.00 Build 0)  -->
<svg version="1.1" id="Layer_1" xmlns="http://www.w3.org/2000/svg" xmlns:xlink="http://www.w3.org/1999/xlink" x="0px" y="0px"
	 viewBox="0 0 40 40" style="enable-background:new 0 0 40 40;" xml:space="preserve">
<style type="text/css">
	.st0{fill:url(#SVGID_1_);}
</style>
<linearGradient id="SVGID_1_" gradientUnits="userSpaceOnUse" x1="7.0026" y1="21.0966" x2="32.9973" y2="21.0966" gradientTransform="matrix(1 0 0 -1 0 41)">
	<stop  offset="0" style="stop-color:#FF4200"/>
	<stop  offset="1" style="stop-color:#E50695"/>
</linearGradient>
<path class="st0" d="M31.3,9.9l0.1,2l0,0L31.3,9.9z M21,12.3l1,1.7l0,0l0,0L21,12.3z M21.7,29.9l0.8,1.8l0,0l0,0L21.7,29.9z
	 M31.5,27.8l0.1,2l0,0l0,0L31.5,27.8z M32.8,11.2l-2-0.1l0,0.1v0.1H32.8z M18.9,12.3l-1,1.7l0,0l0,0L18.9,12.3z M8.5,9.9l-0.1,2l0,0
	L8.5,9.9z M8.3,27.8l-0.1,2l0,0l0,0L8.3,27.8z M18.1,29.9l-0.9,1.8l0,0l0,0L18.1,29.9z M31.2,7.9C30,7.9,28,8.1,26,8.5
	c-2,0.4-4.2,1-6.1,2.1L22,14c1.2-0.7,2.9-1.3,4.7-1.6c1.8-0.3,3.5-0.5,4.7-0.6L31.2,7.9z M19.9,10.6c-0.7,0.4-1.3,1.3-1.3,2.3h4
	c0,0.6-0.3,1-0.6,1.1L19.9,10.6z M18.6,12.9v16.4h4V12.9H18.6z M18.6,29.3c0,2.3,2.3,3.2,3.9,2.4l-1.7-3.6c0.4-0.2,0.8-0.1,1.1,0.1
	c0.4,0.2,0.7,0.6,0.7,1.1H18.6z M22.6,31.7c2.7-1.4,6.8-1.8,9-1.9l-0.2-4c-2.2,0.1-7.1,0.5-10.6,2.3L22.6,31.7z M31.6,29.8
	c1.8-0.1,3.2-1.6,3.2-3.4h-4c0-0.4,0.3-0.6,0.5-0.6L31.6,29.8z M34.8,26.4V11.2h-4v15.2H34.8z M34.8,11.3C35,9.2,33,7.8,31.2,7.9
	l0.2,4c-0.1,0-0.3,0-0.4-0.1c-0.1-0.1-0.3-0.3-0.2-0.6L34.8,11.3z M19.9,10.6c-1.8-1.1-4.1-1.7-6.1-2.1c-2-0.4-4-0.6-5.3-0.6l-0.2,4
	c1.2,0.1,2.9,0.2,4.7,0.6c1.8,0.4,3.5,0.9,4.7,1.6L19.9,10.6z M8.6,7.9C6.7,7.8,5,9.2,5,11.2h4c0,0.4-0.4,0.7-0.6,0.6L8.6,7.9z
	 M5,11.2v15.2h4V11.2H5z M5,26.4c0,1.8,1.4,3.3,3.2,3.4l0.2-4C8.7,25.8,9,26,9,26.4H5z M8.3,29.8c2.2,0.1,6.3,0.5,9,1.9l1.8-3.6
	c-3.5-1.8-8.4-2.2-10.6-2.3L8.3,29.8z M17.3,31.7c1.6,0.7,3.9-0.2,3.9-2.4h-4c0-0.5,0.3-0.9,0.7-1.1c0.3-0.2,0.7-0.2,1.1-0.1
	L17.3,31.7z M21.2,29.3V12.9h-4v16.4H21.2z M21.2,12.9c0-1-0.6-1.9-1.3-2.3L17.8,14c-0.3-0.2-0.6-0.6-0.6-1.1H21.2z"/>
</svg>
