<?xml version="1.0" encoding="utf-8"?>
<!-- Generator: Adobe Illustrator 24.2.1, SVG Export Plug-In . SVG Version: 6.00 Build 0)  -->
<svg version="1.1" id="Layer_1" xmlns="http://www.w3.org/2000/svg" xmlns:xlink="http://www.w3.org/1999/xlink" x="0px" y="0px"
	 viewBox="0 0 40 40" style="enable-background:new 0 0 40 40;" xml:space="preserve">
<style type="text/css">
	.st0{fill:url(#SVGID_1_);}
</style>
<linearGradient id="SVGID_1_" gradientUnits="userSpaceOnUse" x1="8.5" y1="22" x2="31.5" y2="22" gradientTransform="matrix(1 0 0 -1 0 42)">
	<stop  offset="0" style="stop-color:#FF4200"/>
	<stop  offset="1" style="stop-color:#E50695"/>
</linearGradient>
<path class="st0" d="M29.3,8.5H15c-1.2,0-2.2,1-2.2,2.2v2.2h-2.2c-1.2,0-2.2,1-2.2,2.2v14.4c0,1.2,0.9,2.2,2.2,2.2H25
	c1.2,0,2.2-0.9,2.2-2.2v-2.2h2.2c1.2,0,2.2-0.9,2.2-2.2V10.7C31.5,9.5,30.5,8.5,29.3,8.5z M24.8,29.3H10.9c-0.2,0-0.3-0.1-0.3-0.3
	V15.2c0-0.1,0.1-0.3,0.3-0.3h1.9V25c0,1.2,0.9,2.2,2.2,2.2H25v1.9C25,29.3,24.9,29.3,24.8,29.3z M29.1,25H15.2
	c-0.2,0-0.3-0.1-0.3-0.3V10.9c0-0.1,0.1-0.3,0.3-0.3h13.8c0.1,0,0.3,0.1,0.3,0.3v13.8C29.3,24.9,29.2,25,29.1,25z"/>
</svg>
