<svg width="23" height="24" viewBox="0 0 23 24" fill="none" xmlns="http://www.w3.org/2000/svg">
<path d="M20.8438 0.875H6.46875C5.25586 0.875 4.3125 1.86328 4.3125 3.03125V5.1875H2.15625C0.943359 5.1875 0 6.17578 0 7.34375V21.7188C0 22.9316 0.943359 23.875 2.15625 23.875H16.5312C17.6992 23.875 18.6875 22.9316 18.6875 21.7188V19.5625H20.8438C22.0117 19.5625 23 18.6191 23 17.4062V3.03125C23 1.86328 22.0117 0.875 20.8438 0.875ZM16.2617 21.7188H2.42578C2.24609 21.7188 2.15625 21.6289 2.15625 21.4492V7.61328C2.15625 7.47852 2.24609 7.34375 2.42578 7.34375H4.3125V17.4062C4.3125 18.6191 5.25586 19.5625 6.46875 19.5625H16.5312V21.4492C16.5312 21.6289 16.3965 21.7188 16.2617 21.7188ZM20.5742 17.4062H6.73828C6.55859 17.4062 6.46875 17.3164 6.46875 17.1367V3.30078C6.46875 3.16602 6.55859 3.03125 6.73828 3.03125H20.5742C20.709 3.03125 20.8438 3.16602 20.8438 3.30078V17.1367C20.8438 17.3164 20.709 17.4062 20.5742 17.4062Z" fill="url(#paint0_linear)"/>
<defs>
<linearGradient id="paint0_linear" x1="0.00228232" y1="11.9965" x2="22.9976" y2="11.9965" gradientUnits="userSpaceOnUse">
<stop stop-color="#FF4200"/>
<stop offset="1" stop-color="#E50695"/>
</linearGradient>
</defs>
</svg>
