<svg width="26" height="18" viewBox="0 0 26 18" fill="none" xmlns="http://www.w3.org/2000/svg">
<path d="M23.6738 7.9375H21.5625V5.78125C21.5625 4.61328 20.5742 3.625 19.4062 3.625H12.2188L9.34375 0.75H2.15625C0.943359 0.75 0 1.73828 0 2.90625V15.8438C0 17.0566 0.943359 18 2.15625 18H20.125C20.8438 18 21.5176 17.6406 21.9219 17.0117L25.5156 11.2617C26.4141 9.82422 25.3809 7.9375 23.6738 7.9375ZM2.15625 3.17578C2.15625 3.04102 2.24609 2.90625 2.42578 2.90625H8.44531L11.3203 5.78125H19.1367C19.2715 5.78125 19.4062 5.91602 19.4062 6.05078V7.9375H6.82812C6.06445 7.9375 5.3457 8.3418 4.94141 9.01562L2.15625 13.6875V3.17578ZM20.125 15.8438H3.23438L6.69336 10.0938H23.7188L20.125 15.8438Z" fill="url(#paint0_linear)"/>
<defs>
<linearGradient id="paint0_linear" x1="0.00258001" y1="8.9965" x2="25.9973" y2="8.9965" gradientUnits="userSpaceOnUse">
<stop stop-color="#FF4200"/>
<stop offset="1" stop-color="#E50695"/>
</linearGradient>
</defs>
</svg>
