<?xml version="1.0" encoding="utf-8"?>
<!-- Generator: Adobe Illustrator 24.2.1, SVG Export Plug-In . SVG Version: 6.00 Build 0)  -->
<svg version="1.1" id="Layer_1" xmlns="http://www.w3.org/2000/svg" xmlns:xlink="http://www.w3.org/1999/xlink" x="0px" y="0px"
	 viewBox="0 0 40 40" style="enable-background:new 0 0 40 40;" xml:space="preserve">
<style type="text/css">
	.st0{fill:url(#SVGID_1_);}
</style>
<linearGradient id="SVGID_1_" gradientUnits="userSpaceOnUse" x1="7.0765" y1="22" x2="33.0712" y2="22" gradientTransform="matrix(1 0 0 -1 0 42)">
	<stop  offset="0" style="stop-color:#FF4200"/>
	<stop  offset="1" style="stop-color:#E50695"/>
</linearGradient>
<path class="st0" d="M30.8,18.6h-2.1v-2.2c0-1.2-1-2.2-2.2-2.2h-7.2l-2.9-2.9H9.2c-1.2,0-2.2,1-2.2,2.2v12.9c0,1.2,0.9,2.2,2.2,2.2
	h18c0.7,0,1.4-0.4,1.8-1l3.6-5.8C33.5,20.4,32.5,18.6,30.8,18.6z M9.2,13.8c0-0.1,0.1-0.3,0.3-0.3h6l2.9,2.9h7.8
	c0.1,0,0.3,0.1,0.3,0.3v1.9H13.9c-0.8,0-1.5,0.4-1.9,1.1l-2.8,4.7V13.8z M27.2,26.5H10.3l3.5-5.8h17L27.2,26.5z"/>
</svg>
