<svg width="27" height="32" viewBox="0 0 27 32" fill="none" xmlns="http://www.w3.org/2000/svg">
<path d="M21.7515 5.76213C22.0492 5.2093 22.2193 4.57143 22.2193 3.89103C22.2193 1.74352 20.4757 0 18.3282 0C16.4997 0 14.9688 1.25449 14.5435 2.95548C14.1821 2.93422 13.8206 2.91296 13.4591 2.91296C6.01728 2.91296 0 8.93023 0 16.3721C0 20.0292 1.46711 23.3462 3.82724 25.7701C3.33821 26.4292 3.04053 27.2372 3.04053 28.109C3.04053 30.2565 4.78405 32 6.93156 32C8.59003 32 9.99336 30.9581 10.5674 29.5123C11.503 29.7249 12.4598 29.8312 13.4591 29.8312C20.901 29.8312 26.9183 23.814 26.9183 16.3721C26.9395 12.0558 24.9196 8.22857 21.7515 5.76213ZM18.3495 6.27242C18.1369 6.27242 17.9455 6.25116 17.7542 6.18738L16.1382 10.8864L18.4983 10.5037L15.1814 15.9256L17.9455 15.2452L8.6113 26.3654C9.07907 26.7907 9.35548 27.4073 9.35548 28.109C9.35548 29.4272 8.29236 30.4904 6.97409 30.4904C5.65581 30.4904 4.59269 29.4272 4.59269 28.109C4.59269 26.7907 5.65581 25.7276 6.97409 25.7276C7.27176 25.7276 7.56944 25.7914 7.84585 25.8977L10.4824 20.1355L7.90963 20.8372L12.0983 14.8412L9.52558 15.4578L16.8186 5.74086C16.287 5.29435 15.9681 4.63522 15.9681 3.91229C15.9681 2.59402 17.0312 1.5309 18.3495 1.5309C19.6678 1.5309 20.7309 2.59402 20.7309 3.91229C20.7309 5.2093 19.6678 6.27242 18.3495 6.27242Z" fill="url(#paint0_linear)"/>
<defs>
<linearGradient id="paint0_linear" x1="0" y1="16" x2="26.9184" y2="16" gradientUnits="userSpaceOnUse">
<stop stop-color="#FF4200"/>
<stop offset="1" stop-color="#E50695"/>
</linearGradient>
</defs>
</svg>
