<svg width="24px" height="22px" viewBox="0 0 23 18" fill="none" xmlns="http://www.w3.org/2000/svg">
<path d="M20.2386 4.51906C20.2525 4.71449 20.2525 4.90995 20.2525 5.10537C20.2525 11.066 15.7157 17.934 7.42386 17.934C4.86928 17.934 2.4962 17.1942 0.5 15.9099C0.862957 15.9518 1.21191 15.9658 1.58883 15.9658C3.69666 15.9658 5.63704 15.2539 7.18654 14.0394C5.2043 13.9975 3.54313 12.6993 2.97079 10.9125C3.25 10.9543 3.52917 10.9823 3.82234 10.9823C4.22715 10.9823 4.632 10.9264 5.00888 10.8287C2.9429 10.4099 1.39336 8.59521 1.39336 6.40359V6.34777C1.99359 6.6828 2.69162 6.89218 3.43141 6.92007C2.21695 6.11041 1.42129 4.72845 1.42129 3.16499C1.42129 2.32744 1.6446 1.55968 2.03549 0.889622C4.25504 3.62566 7.59135 5.41243 11.3324 5.60789C11.2626 5.27286 11.2207 4.92392 11.2207 4.57492C11.2207 2.09013 13.2309 0.06604 15.7296 0.06604C17.0278 0.06604 18.2004 0.610454 19.024 1.4899C20.043 1.29447 21.0202 0.917552 21.8857 0.401067C21.5506 1.44804 20.8387 2.32749 19.9035 2.88582C20.8109 2.78815 21.6903 2.53683 22.4999 2.18788C21.8858 3.08124 21.118 3.8769 20.2386 4.51906Z" fill="url(#paint0_linear)"/>
<defs>
<linearGradient id="paint0_linear" x1="0.502183" y1="8.99763" x2="22.4976" y2="8.99763" gradientUnits="userSpaceOnUse">
<stop stop-color="#FF4200"/>
<stop offset="1" stop-color="#E50695"/>
</linearGradient>
</defs>
</svg>
