<svg width="24" height="26" viewBox="0 0 24 26" fill="none" xmlns="http://www.w3.org/2000/svg">
<path fill-rule="evenodd" clip-rule="evenodd" d="M9.25272 2.33482C9.25268 2.32894 9.25266 2.32305 9.25266 2.31716C9.25266 1.03575 10.2884 0 11.5698 0C12.7671 0 13.75 0.904264 13.8738 2.06827L19.884 5.53836C20.9534 5.06529 22.2284 5.46359 22.8305 6.50005C23.4678 7.60883 23.0894 9.02304 21.9806 9.66706C21.9162 9.70409 21.8507 9.7377 21.7844 9.76793V16.2354C21.8484 16.2648 21.9116 16.2974 21.9739 16.3332C23.0893 16.9772 23.4678 18.3914 22.8237 19.5001C22.2194 20.5514 20.9108 20.9462 19.8316 20.441L13.8788 23.8779C13.7796 25.0623 12.7852 26 11.5698 26C10.3971 26 9.43012 25.1325 9.27453 24.0031L3.19173 20.4911C2.13199 20.9175 0.899028 20.5143 0.31601 19.5001C-0.321375 18.3914 0.0570725 16.9772 1.16586 16.3332C1.22813 16.2974 1.29136 16.2648 1.35537 16.2353V9.76789C1.28909 9.73767 1.22364 9.70408 1.15925 9.66706C0.0504641 9.02967 -0.327983 7.60883 0.309402 6.50005C0.946787 5.39126 2.36763 5.01281 3.47641 5.6502L3.49332 5.66011L9.25272 2.33482ZM11.5698 3.10215C11.1346 3.10215 10.7848 2.75237 10.7848 2.31716C10.7848 1.88195 11.1346 1.53218 11.5698 1.53218C12.005 1.53218 12.3548 1.88195 12.3548 2.31716C12.3548 2.75237 12.005 3.10215 11.5698 3.10215ZM11.3538 4.62443C11.4249 4.63098 11.497 4.63432 11.5698 4.63432C11.5912 4.63432 11.6125 4.63404 11.6337 4.63346L18.8232 17.0857H4.2732L4.26183 17.0683L11.3538 4.62443ZM13.8734 4.427L18.5647 7.13556C18.4364 7.68759 18.509 8.28728 18.8136 8.81721C19.0402 9.21149 19.366 9.51342 19.7415 9.71016V14.5905L13.8734 4.427ZM13.1184 21.958C12.7083 21.5896 12.1656 21.3657 11.5698 21.3657C10.9358 21.3657 10.362 21.6192 9.94392 22.0306L4.91767 19.1286H18.0189L13.1184 21.958ZM3.39827 9.71021V14.4584L8.82137 4.94282L4.61721 7.37017C4.67857 7.85433 4.58819 8.36156 4.32626 8.81721C4.09959 9.21153 3.77383 9.51347 3.39827 9.71021ZM21.4954 18.7365L21.4988 18.7306C21.7147 18.359 21.593 17.8834 21.209 17.6608C20.8288 17.4431 20.3476 17.5771 20.1352 17.9466C19.9165 18.327 20.0504 18.809 20.4203 19.0216C20.8007 19.2403 21.2827 19.1065 21.4954 18.7365ZM2.99792 8.05362C2.78525 8.42357 2.30323 8.55739 1.92285 8.33872C1.5529 8.12606 1.41907 7.64403 1.63774 7.26364C1.84985 6.89466 2.32992 6.76057 2.70984 6.97683C3.08821 7.19873 3.2136 7.67841 2.99792 8.05362ZM1.93243 17.6598C1.55406 17.8817 1.42867 18.3614 1.64435 18.7365C1.8556 19.104 2.32939 19.2412 2.71812 19.0224C3.09419 18.8006 3.21923 18.3238 3.00624 17.9496C2.78493 17.5722 2.30719 17.4465 1.93243 17.6598ZM20.1419 8.05362C19.9263 7.67841 20.0516 7.19873 20.43 6.97684C20.8048 6.76352 21.2825 6.88925 21.5038 7.26662C21.7171 7.64138 21.5914 8.1191 21.214 8.34042C20.8341 8.55669 20.354 8.42261 20.1419 8.05362ZM10.7848 23.6828C10.7848 24.1181 11.1346 24.4678 11.5698 24.4678C12.0022 24.4678 12.3548 24.1143 12.3548 23.6828C12.3548 23.2476 12.005 22.8979 11.5698 22.8979C11.1346 22.8979 10.7848 23.2476 10.7848 23.6828Z" fill="url(#paint0_linear)"/>
<defs>
<linearGradient id="paint0_linear" x1="0.0022962" y1="12.9965" x2="23.1375" y2="12.9965" gradientUnits="userSpaceOnUse">
<stop stop-color="#FF4200"/>
<stop offset="1" stop-color="#E50695"/>
</linearGradient>
</defs>
</svg>
