<?xml version="1.0" encoding="utf-8"?>
<!-- Generator: Adobe Illustrator 24.2.1, SVG Export Plug-In . SVG Version: 6.00 Build 0)  -->
<svg version="1.1" id="Layer_1" xmlns="http://www.w3.org/2000/svg" xmlns:xlink="http://www.w3.org/1999/xlink" x="0px" y="0px"
	 viewBox="0 0 40 40" style="enable-background:new 0 0 40 40;" xml:space="preserve">
<style type="text/css">
	.st0{fill-rule:evenodd;clip-rule:evenodd;fill:url(#SVGID_1_);}
</style>
<linearGradient id="SVGID_1_" gradientUnits="userSpaceOnUse" x1="8.4801" y1="746" x2="31.6199" y2="746" gradientTransform="matrix(1 0 0 1 0 -726)">
	<stop  offset="0" style="stop-color:#FF4200"/>
	<stop  offset="1" style="stop-color:#E50695"/>
</linearGradient>
<path class="st0" d="M17.8,9.3L17.8,9.3C17.8,8,18.8,7,20,7c1.2,0,2.2,0.9,2.3,2.1l6,3.5c1.1-0.5,2.3-0.1,2.9,1s0.3,2.5-0.8,3.2
	c-0.1,0-0.1,0.1-0.2,0.1v6.5c0.1,0,0.1,0.1,0.2,0.1c1.1,0.6,1.5,2.1,0.8,3.2c-0.6,1.1-1.9,1.4-3,0.9l-6,3.4c0,1.1-1,2-2.2,2
	s-2.1-0.9-2.3-2l-6.1-3.5c-1.1,0.4-2.3,0-2.9-1c-0.6-1.1-0.3-2.5,0.8-3.2c0.1,0,0.1-0.1,0.2-0.1v-6.5c-0.1,0-0.1-0.1-0.2-0.1
	c-1.1-0.6-1.5-2.1-0.8-3.2c0.6-1.1,2.1-1.5,3.2-0.8l0,0L17.8,9.3z M20,10.1c-0.4,0-0.8-0.3-0.8-0.8c0-0.4,0.3-0.8,0.8-0.8
	c0.4,0,0.8,0.3,0.8,0.8S20.4,10.1,20,10.1z M19.8,11.6c0.1,0,0.1,0,0.2,0c0,0,0,0,0.1,0l7.2,12.5H12.8l0,0L19.8,11.6z M22.3,11.4
	l4.7,2.7c-0.1,0.6-0.1,1.2,0.2,1.7c0.2,0.4,0.6,0.7,0.9,0.9v4.9L22.3,11.4z M21.5,29c-0.4-0.4-1-0.6-1.5-0.6c-0.6,0-1.2,0.3-1.6,0.7
	l-5-2.9h13.1L21.5,29z M11.9,16.7v4.7l5.4-9.5l-4.2,2.5c0.1,0.5,0,1-0.3,1.4C12.6,16.2,12.2,16.5,11.9,16.7z M29.9,25.7L29.9,25.7
	c0.2-0.4,0.1-0.9-0.3-1.1s-0.9-0.1-1.1,0.3s-0.1,0.9,0.3,1.1C29.2,26.2,29.8,26.1,29.9,25.7z M11.4,15.1c-0.2,0.4-0.7,0.5-1.1,0.3
	c-0.4-0.2-0.5-0.7-0.3-1.1c0.2-0.4,0.7-0.5,1.1-0.3S11.7,14.7,11.4,15.1z M10.4,24.7c-0.4,0.2-0.5,0.7-0.3,1.1s0.7,0.5,1.1,0.3
	c0.4-0.2,0.5-0.7,0.3-1.1C11.2,24.6,10.8,24.4,10.4,24.7z M28.6,15.1c-0.2-0.4-0.1-0.9,0.3-1.1c0.4-0.2,0.9-0.1,1.1,0.3
	c0.2,0.4,0.1,0.9-0.3,1.1C29.3,15.6,28.8,15.4,28.6,15.1z M19.2,30.7c0,0.4,0.3,0.8,0.8,0.8c0.4,0,0.8-0.4,0.8-0.8s-0.3-0.8-0.8-0.8
	C19.6,29.9,19.2,30.2,19.2,30.7z"/>
</svg>
