<svg width="22" height="20" viewBox="0 0 22 20" fill="none" xmlns="http://www.w3.org/2000/svg">
<path fill-rule="evenodd" clip-rule="evenodd" d="M8 2H19C19.5523 2 20 2.44772 20 3V6.5H8V2ZM7 2H3C2.44772 2 2 2.44772 2 3V6.5H7V2ZM7 7.5H2V12.5H7V7.5ZM7 13.5H2V17C2 17.5523 2.44772 18 3 18H7V13.5ZM8 18V13.5H20V17C20 17.5523 19.5523 18 19 18H8ZM8 19H7H3C1.89543 19 1 18.1046 1 17V3C1 1.89543 1.89543 1 3 1H19C20.1046 1 21 1.89543 21 3V6.5V7.5V12.5V13.5V17C21 18.1046 20.1046 19 19 19H8ZM8 12.5V7.5H20V12.5H8Z" fill="url(#paint0_linear)"/>
<path d="M8 2V1.75H7.75V2H8ZM20 6.5V6.75H20.25V6.5H20ZM8 6.5H7.75V6.75H8V6.5ZM7 2H7.25V1.75H7V2ZM2 6.5H1.75V6.75H2V6.5ZM7 6.5V6.75H7.25V6.5H7ZM2 7.5V7.25H1.75V7.5H2ZM7 7.5H7.25V7.25H7V7.5ZM2 12.5H1.75V12.75H2V12.5ZM7 12.5V12.75H7.25V12.5H7ZM7 13.5H7.25V13.25H7V13.5ZM2 13.5V13.25H1.75V13.5H2ZM7 18V18.25H7.25V18H7ZM8 13.5V13.25H7.75V13.5H8ZM8 18H7.75V18.25H8V18ZM20 13.5H20.25V13.25H20V13.5ZM8 7.5V7.25H7.75V7.5H8ZM8 12.5H7.75V12.75H8V12.5ZM20 7.5H20.25V7.25H20V7.5ZM20 12.5V12.75H20.25V12.5H20ZM19 1.75H8V2.25H19V1.75ZM20.25 3C20.25 2.30964 19.6904 1.75 19 1.75V2.25C19.4142 2.25 19.75 2.58579 19.75 3H20.25ZM20.25 6.5V3H19.75V6.5H20.25ZM8 6.75H20V6.25H8V6.75ZM7.75 2V6.5H8.25V2H7.75ZM7 1.75H3V2.25H7V1.75ZM3 1.75C2.30964 1.75 1.75 2.30964 1.75 3H2.25C2.25 2.58579 2.58579 2.25 3 2.25V1.75ZM1.75 3V6.5H2.25V3H1.75ZM2 6.75H7V6.25H2V6.75ZM7.25 6.5V2H6.75V6.5H7.25ZM2 7.75H7V7.25H2V7.75ZM2.25 12.5V7.5H1.75V12.5H2.25ZM7 12.25H2V12.75H7V12.25ZM7.25 12.5V7.5H6.75V12.5H7.25ZM7 13.25H2V13.75H7V13.25ZM1.75 13.5V17H2.25V13.5H1.75ZM1.75 17C1.75 17.6904 2.30964 18.25 3 18.25V17.75C2.58579 17.75 2.25 17.4142 2.25 17H1.75ZM3 18.25H7V17.75H3V18.25ZM7.25 18V13.5H6.75V18H7.25ZM7.75 13.5V18H8.25V13.5H7.75ZM20 13.25H8V13.75H20V13.25ZM20.25 17V13.5H19.75V17H20.25ZM19 18.25C19.6904 18.25 20.25 17.6904 20.25 17H19.75C19.75 17.4142 19.4142 17.75 19 17.75V18.25ZM8 18.25H19V17.75H8V18.25ZM8 18.75H7V19.25H8V18.75ZM7 18.75H3V19.25H7V18.75ZM3 18.75C2.0335 18.75 1.25 17.9665 1.25 17H0.75C0.75 18.2426 1.75736 19.25 3 19.25V18.75ZM1.25 17V3H0.75V17H1.25ZM1.25 3C1.25 2.0335 2.0335 1.25 3 1.25V0.75C1.75736 0.75 0.75 1.75736 0.75 3H1.25ZM3 1.25H19V0.75H3V1.25ZM19 1.25C19.9665 1.25 20.75 2.0335 20.75 3H21.25C21.25 1.75736 20.2426 0.75 19 0.75V1.25ZM20.75 3V6.5H21.25V3H20.75ZM20.75 6.5V7.5H21.25V6.5H20.75ZM20.75 7.5V12.5H21.25V7.5H20.75ZM20.75 12.5V13.5H21.25V12.5H20.75ZM20.75 13.5V17H21.25V13.5H20.75ZM20.75 17C20.75 17.9665 19.9665 18.75 19 18.75V19.25C20.2426 19.25 21.25 18.2426 21.25 17H20.75ZM19 18.75H8V19.25H19V18.75ZM7.75 7.5V12.5H8.25V7.5H7.75ZM8 7.75H20V7.25H8V7.75ZM19.75 7.5V12.5H20.25V7.5H19.75ZM20 12.25H8V12.75H20V12.25Z" fill="url(#paint1_linear)"/>
<defs>
<linearGradient id="paint0_linear" x1="1.00198" y1="9.99758" x2="20.9979" y2="9.99758" gradientUnits="userSpaceOnUse">
<stop stop-color="#FF4200"/>
<stop offset="1" stop-color="#E50695"/>
</linearGradient>
<linearGradient id="paint1_linear" x1="1.00198" y1="9.99758" x2="20.9979" y2="9.99758" gradientUnits="userSpaceOnUse">
<stop stop-color="#FF4200"/>
<stop offset="1" stop-color="#E50695"/>
</linearGradient>
</defs>
</svg>
