<?xml version="1.0" encoding="utf-8"?>
<!-- Generator: Adobe Illustrator 24.2.1, SVG Export Plug-In . SVG Version: 6.00 Build 0)  -->
<svg version="1.1" id="Layer_1" xmlns="http://www.w3.org/2000/svg" xmlns:xlink="http://www.w3.org/1999/xlink" x="0px" y="0px"
	 viewBox="0 0 40 40" style="enable-background:new 0 0 40 40;" xml:space="preserve">
<style type="text/css">
	.st0{fill-rule:evenodd;clip-rule:evenodd;fill:url(#SVGID_1_);}
</style>
<linearGradient id="SVGID_1_" gradientUnits="userSpaceOnUse" x1="8.4301" y1="22" x2="31.5699" y2="22" gradientTransform="matrix(1 0 0 -1 0 42)">
	<stop  offset="0" style="stop-color:#FF4200"/>
	<stop  offset="1" style="stop-color:#E50695"/>
</linearGradient>
<path class="st0" d="M17.7,9.3C17.7,9.3,17.7,9.3,17.7,9.3C17.7,8,18.7,7,20,7c1.2,0,2.2,0.9,2.3,2.1l6,3.5c1.1-0.5,2.3-0.1,2.9,1
	c0.6,1.1,0.3,2.5-0.8,3.2c-0.1,0-0.1,0.1-0.2,0.1v6.5c0.1,0,0.1,0.1,0.2,0.1c1.1,0.6,1.5,2.1,0.8,3.2c-0.6,1.1-1.9,1.4-3,0.9l-6,3.4
	C22.2,32.1,21.2,33,20,33c-1.2,0-2.1-0.9-2.3-2l-6.1-3.5c-1.1,0.4-2.3,0-2.9-1c-0.6-1.1-0.3-2.5,0.8-3.2c0.1,0,0.1-0.1,0.2-0.1v-6.5
	c-0.1,0-0.1-0.1-0.2-0.1c-1.1-0.6-1.5-2.1-0.8-3.2c0.6-1.1,2.1-1.5,3.2-0.8l0,0L17.7,9.3z M20,10.1c-0.4,0-0.8-0.3-0.8-0.8
	c0-0.4,0.3-0.8,0.8-0.8c0.4,0,0.8,0.3,0.8,0.8C20.8,9.8,20.4,10.1,20,10.1z M19.8,11.6c0.1,0,0.1,0,0.2,0c0,0,0,0,0.1,0l7.2,12.5
	H12.7l0,0L19.8,11.6z M22.3,11.4l4.7,2.7c-0.1,0.6-0.1,1.2,0.2,1.7c0.2,0.4,0.6,0.7,0.9,0.9v4.9L22.3,11.4z M21.5,29
	c-0.4-0.4-1-0.6-1.5-0.6c-0.6,0-1.2,0.3-1.6,0.7l-5-2.9h13.1L21.5,29z M11.8,16.7v4.7l5.4-9.5L13,14.4c0.1,0.5,0,1-0.3,1.4
	C12.5,16.2,12.2,16.5,11.8,16.7z M29.9,25.7L29.9,25.7c0.2-0.4,0.1-0.9-0.3-1.1c-0.4-0.2-0.9-0.1-1.1,0.3c-0.2,0.4-0.1,0.9,0.3,1.1
	C29.2,26.2,29.7,26.1,29.9,25.7z M11.4,15.1c-0.2,0.4-0.7,0.5-1.1,0.3c-0.4-0.2-0.5-0.7-0.3-1.1c0.2-0.4,0.7-0.5,1.1-0.3
	C11.5,14.2,11.6,14.7,11.4,15.1z M10.4,24.7c-0.4,0.2-0.5,0.7-0.3,1.1c0.2,0.4,0.7,0.5,1.1,0.3c0.4-0.2,0.5-0.7,0.3-1.1
	C11.2,24.6,10.7,24.4,10.4,24.7z M28.6,15.1c-0.2-0.4-0.1-0.9,0.3-1.1c0.4-0.2,0.9-0.1,1.1,0.3c0.2,0.4,0.1,0.9-0.3,1.1
	C29.3,15.6,28.8,15.4,28.6,15.1z M19.2,30.7c0,0.4,0.3,0.8,0.8,0.8c0.4,0,0.8-0.4,0.8-0.8c0-0.4-0.3-0.8-0.8-0.8
	C19.6,29.9,19.2,30.2,19.2,30.7z"/>
</svg>
