<?xml version="1.0" encoding="utf-8"?>
<!-- Generator: Adobe Illustrator 24.2.1, SVG Export Plug-In . SVG Version: 6.00 Build 0)  -->
<svg version="1.1" id="Layer_1" xmlns="http://www.w3.org/2000/svg" xmlns:xlink="http://www.w3.org/1999/xlink" x="0px" y="0px"
	 viewBox="0 0 40 40" style="enable-background:new 0 0 40 40;" xml:space="preserve">
<style type="text/css">
	.st0{fill:url(#SVGID_1_);stroke:url(#SVGID_2_);}
</style>
<linearGradient id="SVGID_1_" gradientUnits="userSpaceOnUse" x1="8.5148" y1="22" x2="31.4852" y2="22" gradientTransform="matrix(1 0 0 -1 0 42)">
	<stop  offset="0" style="stop-color:#FF4200"/>
	<stop  offset="1" style="stop-color:#E50695"/>
</linearGradient>
<linearGradient id="SVGID_2_" gradientUnits="userSpaceOnUse" x1="8.5171" y1="22" x2="31.4829" y2="22" gradientTransform="matrix(1 0 0 -1 0 42)">
	<stop  offset="0" style="stop-color:#FF4200"/>
	<stop  offset="1" style="stop-color:#E50695"/>
</linearGradient>
<path class="st0" d="M31.5,18c-0.1-0.2-0.3-0.3-0.5-0.3h-8.7l7.5-10.8c0.1-0.2,0.1-0.5-0.1-0.7c-0.2-0.2-0.5-0.2-0.7,0L8.7,20.9
	c-0.2,0.1-0.3,0.4-0.2,0.6c0.1,0.2,0.3,0.3,0.5,0.3h8.3L9.7,33.2c-0.1,0.2-0.1,0.5,0.1,0.7c0.1,0.1,0.3,0.1,0.4,0.1s0.3,0,0.3-0.1
	l20.7-15.3C31.5,18.4,31.5,18.2,31.5,18z M12.5,31.1l6.4-9.5c0.1-0.2,0.1-0.4,0-0.5c-0.1-0.2-0.3-0.3-0.5-0.3h-7.7L26.9,8.9l-6.2,9
	c-0.1,0.2-0.1,0.4,0,0.5c0.1,0.2,0.3,0.3,0.5,0.3h8.1L12.5,31.1z"/>
</svg>
