<svg width="28" height="28" viewBox="0 0 28 28" fill="none" xmlns="http://www.w3.org/2000/svg">
<path d="M25.7754 7.81641L23.823 8.25027L23.8298 8.28083L23.8376 8.31117L25.7754 7.81641ZM24.877 7.54688L23.5754 6.02836L23.5171 6.07835L23.4627 6.13266L24.877 7.54688ZM21.5527 10.8711L21.2334 12.8454L22.2434 13.0088L22.9669 12.2853L21.5527 10.8711ZM18.498 10.377L16.5237 10.6963L16.7541 12.1209L18.1787 12.3513L18.498 10.377ZM18.0039 7.32227L16.5897 5.90805L15.8662 6.63157L16.0296 7.64164L18.0039 7.32227ZM21.0586 3.09961L20.5638 5.03744L20.5942 5.04519L20.6247 5.05198L21.0586 3.09961ZM14.9492 4.80664L16.3454 6.23864L16.3545 6.2298L16.3634 6.22085L14.9492 4.80664ZM13.4219 11.4102L14.8328 12.8277L15.717 11.9476L15.3154 10.7664L13.4219 11.4102ZM3.80859 20.9785L2.39769 19.561L2.39438 19.5643L3.80859 20.9785ZM17.4648 15.498L18.0744 13.5932L16.9129 13.2215L16.0506 14.0838L17.4648 15.498ZM27.7278 7.38255C27.2668 5.30843 24.8802 4.90997 23.5754 6.02836L26.1785 9.06539C25.8012 9.38879 25.2979 9.47887 24.8528 9.34965C24.3891 9.21504 23.9505 8.82389 23.823 8.25027L27.7278 7.38255ZM23.4627 6.13266L20.1385 9.45688L22.9669 12.2853L26.2912 8.96109L23.4627 6.13266ZM21.8721 8.89676L18.8174 8.40262L18.1787 12.3513L21.2334 12.8454L21.8721 8.89676ZM20.4724 10.0576L19.9782 7.00289L16.0296 7.64164L16.5237 10.6963L20.4724 10.0576ZM19.4181 8.73648L22.7423 5.41226L19.9139 2.58383L16.5897 5.90805L19.4181 8.73648ZM22.7423 5.41226C24.2842 3.87039 23.281 1.54469 21.4925 1.14724L20.6247 5.05198C20.1056 4.93661 19.7119 4.55122 19.5595 4.07861C19.3964 3.57306 19.5151 2.98262 19.9139 2.58383L22.7423 5.41226ZM21.5534 1.16177C18.7663 0.450174 15.7025 1.22496 13.535 3.39243L16.3634 6.22085C17.5202 5.06411 19.1283 4.67092 20.5638 5.03744L21.5534 1.16177ZM13.553 3.37464C11.1617 5.70617 10.5361 9.13571 11.5283 12.054L15.3154 10.7664C14.7803 9.19242 15.143 7.41101 16.3454 6.23864L13.553 3.37464ZM12.011 9.99263L2.3977 19.561L5.21949 22.396L14.8328 12.8277L12.011 9.99263ZM2.39438 19.5643C0.490285 21.4684 0.490285 24.5765 2.39438 26.4806L5.22281 23.6522C4.88081 23.3102 4.88081 22.7347 5.22281 22.3927L2.39438 19.5643ZM2.39438 26.4806C4.29848 28.3847 7.4066 28.3847 9.3107 26.4806L6.48227 23.6522C6.14027 23.9942 5.56481 23.9942 5.22281 23.6522L2.39438 26.4806ZM9.3107 26.4806L18.8791 16.9123L16.0506 14.0838L6.48227 23.6522L9.3107 26.4806ZM16.8553 17.4029C19.7662 18.3344 23.1212 17.7014 25.4826 15.34L22.6541 12.5116C21.4218 13.7439 19.6557 14.0992 18.0744 13.5932L16.8553 17.4029ZM25.4826 15.34C27.65 13.1725 28.4248 10.1087 27.7132 7.32164L23.8376 8.31117C24.2041 9.74673 23.8109 11.3548 22.6541 12.5116L25.4826 15.34ZM5.875 22.0781C6.04975 22.0781 6.30197 22.1483 6.51431 22.3607C6.72665 22.573 6.79688 22.8253 6.79688 23H2.79688C2.79688 24.7335 4.14152 26.0781 5.875 26.0781V22.0781ZM6.79688 23C6.79688 23.225 6.70871 23.4563 6.53466 23.6355C6.35241 23.8231 6.10594 23.9219 5.875 23.9219V19.9219C4.08727 19.9219 2.79688 21.3665 2.79688 23H6.79688ZM5.875 23.9219C5.59453 23.9219 5.36658 23.8039 5.21884 23.6562C5.07111 23.5084 4.95312 23.2805 4.95312 23H8.95312C8.95312 21.3114 7.56355 19.9219 5.875 19.9219V23.9219ZM4.95312 23C4.95312 22.7691 5.05187 22.5226 5.23949 22.3403C5.41866 22.1663 5.65001 22.0781 5.875 22.0781V26.0781C7.50851 26.0781 8.95312 24.7877 8.95312 23H4.95312Z" fill="url(#paint0_linear)"/>
<defs>
<linearGradient id="paint0_linear" x1="3.00228" y1="13.9965" x2="25.9976" y2="13.9965" gradientUnits="userSpaceOnUse">
<stop stop-color="#FF4200"/>
<stop offset="1" stop-color="#E50695"/>
</linearGradient>
</defs>
</svg>
